<?xml version="1.0" encoding="utf-8"?>
<!-- Generator: Adobe Illustrator 17.0.0, SVG Export Plug-In . SVG Version: 6.00 Build 0)  -->
<!DOCTYPE svg PUBLIC "-//W3C//DTD SVG 1.1//EN" "http://www.w3.org/Graphics/SVG/1.1/DTD/svg11.dtd">
<svg version="1.1" id="Layer_1" xmlns="http://www.w3.org/2000/svg" xmlns:xlink="http://www.w3.org/1999/xlink" x="0px" y="0px"
	 width="21px" height="21px" viewBox="0 0 21 21" enable-background="new 0 0 21 21" xml:space="preserve">
<g>
	<g>
		<g>
			<g>
				<path fill="#313131" d="M13.1,15.5c0,0,0-1.3,0-2.5s0-2.5,0-2.5c0-0.7-0.3-1.4-0.7-1.9s-1-0.8-1.8-0.8S9.2,8.1,8.7,8.6
					s-0.8,1.2-0.8,1.9c0,0.7,0.3,1.4,0.8,1.9s1.2,0.8,1.9,0.8c0.4,0,0.7-0.1,1-0.2s0.6-0.3,0.9-0.5c0,0.5,0,1,0,1.5s0,1,0,1.5
					c-0.3,0.1-0.5,0.2-0.9,0.2s-0.6,0.1-0.9,0.1c-1.5,0-2.7-0.6-3.7-1.5S5.5,12,5.5,10.6c0-1.5,0.6-2.7,1.5-3.7c1-1,2.3-1.5,3.7-1.5
					c1.5,0,2.7,0.6,3.7,1.6c0.9,1,1.5,2.3,1.5,3.7c0,0,0,1.2,0,2.5c0,1.2,0,2.5,0,2.5"/>
			</g>
		</g>
	</g>
	<g>
		<path fill="#313131" d="M10.5,21c-2.8,0-5.4-1.1-7.4-3.1S0,13.3,0,10.5s1.1-5.4,3.1-7.4S7.7,0,10.5,0s5.4,1.1,7.4,3.1
			S21,7.7,21,10.5s-1.1,5.4-3.1,7.4S13.3,21,10.5,21z M10.5,2.4C6,2.4,2.4,6,2.4,10.5s3.6,8.1,8.1,8.1s8.1-3.6,8.1-8.1
			S15,2.4,10.5,2.4z"/>
	</g>
</g>
</svg>
